<svg width="100" height="100" viewBox="0 0 100 100" xmlns="http://www.w3.org/2000/svg">
  <circle cx="50" cy="50" r="48" fill="white" />
  
  <g transform="translate(20, 20) scale(2.5)">
    <path d="M18.92 6.01C18.72 5.42 18.16 5 17.5 5H6.5C5.84 5 5.29 5.42 5.08 6.01L3 12V20C3 20.55 3.45 21 4 21H5C5.55 21 6 20.55 6 20V19H18V20C18 20.55 18.45 21 19 21H20C20.55 21 21 20.55 21 20V12L18.92 6.01ZM6.5 7H17.5L18.53 10H5.47L6.5 7ZM19 17H5V12H19V17ZM7.5 14C6.67 14 6 14.67 6 15.5C6 16.33 6.67 17 7.5 17C8.33 17 9 16.33 9 15.5C9 14.67 8.33 14 7.5 14ZM16.5 14C15.67 14 15 14.67 15 15.5C15 16.33 15.67 17 16.5 17C17.33 17 18 16.33 18 15.5C18 14.67 17.33 14 16.5 14Z" fill="black"/>
  </g>
</svg>
